<svg xmlns="http://www.w3.org/2000/svg" viewBox="0 0 720 460" role="img" aria-labelledby="title description">
  <title id="title">Gemini constellation map</title>
  <desc id="description">Brighter stars in Gemini plotted from HYG Database J2000 coordinates. Pollux is highlighted. Guide lines are not official constellation boundaries.</desc>
  <metadata>HYG Database v4.0, CC BY-SA 4.0, source blob 681f7d51024c9593182079da9fd1aec897a44e7e. Guide segments authored by Zodiacs.org.</metadata>
  <defs>
    <radialGradient id="field" cx="50%" cy="46%" r="66%"><stop offset="0" stop-color="#B29DD0" stop-opacity=".08"/><stop offset="1" stop-color="#07080c" stop-opacity="0"/></radialGradient>
    <filter id="glow" x="-100%" y="-100%" width="300%" height="300%"><feGaussianBlur stdDeviation="3" result="b"/><feMerge><feMergeNode in="b"/><feMergeNode in="SourceGraphic"/></feMerge></filter>
  </defs>
  <rect width="720" height="460" rx="28" fill="#090b10"/>
  <rect width="720" height="460" rx="28" fill="url(#field)"/>
  <g fill="none" stroke="#B29DD0" stroke-opacity=".34" stroke-width="1.25" stroke-linecap="round" stroke-linejoin="round">  <path d="M 589.88 266.36 L 548.79 266.21"/>
  <path d="M 548.79 266.21 L 339.61 309.36"/>
  <path d="M 339.61 309.36 L 442.18 208.07"/>
  <path d="M 442.18 208.07 L 184.61 58.00"/>
  <path d="M 473.80 402.00 L 258.20 278.00"/>
  <path d="M 258.20 278.00 L 130.12 143.77"/>
  <path d="M 442.18 208.07 L 258.20 278.00"/>
  <path d="M 130.12 143.77 L 134.54 224.35"/></g>
  <g fill="#eef1f7" fill-opacity=".86">  <circle class="star" cx="589.88" cy="266.36" r="2.89"/>
  <circle class="star" cx="548.79" cy="266.21" r="3.33"/>
  <circle class="star" cx="473.80" cy="402.00" r="4.27"/>
  <circle class="star" cx="442.18" cy="208.07" r="3.14"/>
  <circle class="star" cx="339.61" cy="309.36" r="2.19"/>
  <circle class="star" cx="258.20" cy="278.00" r="2.70"/>
  <circle class="star" cx="184.61" cy="58.00" r="4.62"/>
  <circle class="star" cx="134.54" cy="224.35" r="2.63"/>
  <circle class="star focus" cx="130.12" cy="143.77" r="5.04"/></g>
  <circle cx="130.12" cy="143.77" r="14" fill="none" stroke="#B29DD0" stroke-width="1.5" stroke-opacity=".9" filter="url(#glow)"/>
  <text x="146.12" y="129.77" fill="#B29DD0" font-family="ui-monospace, monospace" font-size="12" letter-spacing="1.5">POLLUX</text>
  <text x="24" y="430" fill="#8e96ab" font-family="ui-monospace, monospace" font-size="9" letter-spacing="2">J2000 · EAST LEFT · GEM</text>
</svg>