<svg xmlns="http://www.w3.org/2000/svg" viewBox="0 0 720 460" role="img" aria-labelledby="title description">
  <title id="title">Virgo constellation map</title>
  <desc id="description">Brighter stars in Virgo plotted from HYG Database J2000 coordinates. Spica is highlighted. Guide lines are not official constellation boundaries.</desc>
  <metadata>HYG Database v4.0, CC BY-SA 4.0, source blob 681f7d51024c9593182079da9fd1aec897a44e7e. Guide segments authored by Zodiacs.org.</metadata>
  <defs>
    <radialGradient id="field" cx="50%" cy="46%" r="66%"><stop offset="0" stop-color="#B7D9B0" stop-opacity=".08"/><stop offset="1" stop-color="#07080c" stop-opacity="0"/></radialGradient>
    <filter id="glow" x="-100%" y="-100%" width="300%" height="300%"><feGaussianBlur stdDeviation="3" result="b"/><feMerge><feMergeNode in="b"/><feMergeNode in="SourceGraphic"/></feMerge></filter>
  </defs>
  <rect width="720" height="460" rx="28" fill="#090b10"/>
  <rect width="720" height="460" rx="28" fill="url(#field)"/>
  <g fill="none" stroke="#B7D9B0" stroke-opacity=".34" stroke-width="1.25" stroke-linecap="round" stroke-linejoin="round">  <path d="M 642.48 200.98 L 528.92 238.80"/>
  <path d="M 528.92 238.80 L 444.34 250.97"/>
  <path d="M 444.34 250.97 L 390.13 175.59"/>
  <path d="M 390.13 175.59 L 364.58 58.00"/>
  <path d="M 444.34 250.97 L 238.17 237.69"/>
  <path d="M 238.17 237.69 L 275.10 402.00"/>
  <path d="M 275.10 402.00 L 77.52 321.74"/></g>
  <g fill="#eef1f7" fill-opacity=".86">  <circle class="star" cx="642.48" cy="200.98" r="2.61"/>
  <circle class="star" cx="528.92" cy="238.80" r="2.31"/>
  <circle class="star" cx="444.34" cy="250.97" r="3.46"/>
  <circle class="star" cx="390.13" cy="175.59" r="2.81"/>
  <circle class="star" cx="364.58" cy="58.00" r="3.35"/>
  <circle class="star focus" cx="275.10" cy="402.00" r="5.22"/>
  <circle class="star" cx="238.17" cy="237.69" r="2.82"/>
  <circle class="star" cx="77.52" cy="321.74" r="2.13"/></g>
  <circle cx="275.10" cy="402.00" r="14" fill="none" stroke="#B7D9B0" stroke-width="1.5" stroke-opacity=".9" filter="url(#glow)"/>
  <text x="291.10" y="388.00" fill="#B7D9B0" font-family="ui-monospace, monospace" font-size="12" letter-spacing="1.5">SPICA</text>
  <text x="24" y="430" fill="#8e96ab" font-family="ui-monospace, monospace" font-size="9" letter-spacing="2">J2000 · EAST LEFT · VIR</text>
</svg>